<svg
  xmlns="http://www.w3.org/2000/svg"
  viewBox="0 0 32 32"
  width="32"
  height="32"
>
  <rect width="32" height="32" rx="4" fill="#1a1a1a" />
  <path
    d="M16 4 C16 4 6 12 6 18 C6 21.3 8.7 24 12 24 C13.4 24 14.7 23.5 15.7 22.6 C15.3 24.4 14.6 26 13 27 L19 27 C17.4 26 16.7 24.4 16.3 22.6 C17.3 23.5 18.6 24 20 24 C23.3 24 26 21.3 26 18 C26 12 16 4 16 4 Z"
    fill="#e6a832"
    filter="url(#glow)"
  />
  <path
    d="M16 5.5 C16 5.5 7 13 7 18.2 C7 21 9.4 23.2 12.3 23 C13.6 23 14.8 22.4 15.6 21.5 C15.2 23.4 14.5 25.2 13 26.2 L19 26.2 C17.5 25.2 16.8 23.4 16.4 21.5 C17.2 22.4 18.4 23 19.7 23 C22.6 23.2 25 21 25 18.2 C25 13 16 5.5 16 5.5 Z"
    fill="#c8841d"
  />
  <defs>
    <filter id="glow" x="-20%" y="-20%" width="140%" height="140%">
      <feGaussianBlur stdDeviation="1" result="blur" />
      <feMerge><feMergeNode in="blur" /><feMergeNode
          in="SourceGraphic"
        /></feMerge>
    </filter>
  </defs>
</svg>
